<svg xmlns="http://www.w3.org/2000/svg" viewBox="0 0 1024.84 241.53"><defs><style>.cls-1{fill:#fff;}</style></defs><title>logo-back4app-white</title><g id="Camada_2" data-name="Camada 2"><g id="Layer_1" data-name="Layer 1"><path class="cls-1" d="M146,11.53"/><g id="Logo"><path class="cls-1" d="M403.19,127a23.76,23.76,0,0,1-10,20.08,34.23,34.23,0,0,1-10.78,5.16A46.71,46.71,0,0,1,369.38,154H318.75V49.22h56.1a20.7,20.7,0,0,1,9.89,2.36,24.67,24.67,0,0,1,7.53,6.12,28.17,28.17,0,0,1,4.8,8.56,28.89,28.89,0,0,1,1.7,9.67,28.55,28.55,0,0,1-3.84,14.4,23.38,23.38,0,0,1-11.22,10,27,27,0,0,1,14.25,9.52Q403.19,116.68,403.19,127ZM339.12,66.64V93.07h27.16a12.09,12.09,0,0,0,8.78-3.54q3.62-3.54,3.62-9.74,0-6-3.32-9.6a10.78,10.78,0,0,0-8.19-3.54Zm43.55,56.54a15.44,15.44,0,0,0-1-5.39,15.1,15.1,0,0,0-2.58-4.5,12.06,12.06,0,0,0-3.84-3,10.73,10.73,0,0,0-4.87-1.11h-31.3v27.61h30.26a13.25,13.25,0,0,0,5.24-1,12.49,12.49,0,0,0,4.21-2.88,14,14,0,0,0,3.84-9.67Z"/><path class="cls-1" d="M438.32,155.52a29.44,29.44,0,0,1-10.48-1.85,25.3,25.3,0,0,1-8.41-5.17,24,24,0,0,1-5.54-7.75,23.51,23.51,0,0,1-2-9.75,21.45,21.45,0,0,1,2.44-10.11,23.15,23.15,0,0,1,6.79-7.9,33.72,33.72,0,0,1,10.41-5.09,45.34,45.34,0,0,1,13.29-1.85,57.4,57.4,0,0,1,10.11.88,41.18,41.18,0,0,1,8.78,2.51V105q0-7.67-4.35-11.81t-12.92-4.14a34.15,34.15,0,0,0-12.11,2.22,56.15,56.15,0,0,0-12.11,6.49l-6.05-12.54a57.11,57.11,0,0,1,32.18-9.89q16.68,0,25.91,8.19t9.23,23.69v24.07c0,2.06.37,3.54,1.11,4.42a4.82,4.82,0,0,0,3.62,1.48V154a44.35,44.35,0,0,1-8.71,1q-5.61,0-8.64-2.51a10.76,10.76,0,0,1-3.76-6.64l-.44-4.28A34.25,34.25,0,0,1,454.12,152,36,36,0,0,1,438.32,155.52ZM443.93,141a25.85,25.85,0,0,0,9.52-1.77,17.3,17.3,0,0,0,7-4.72c2.16-1.67,3.25-3.55,3.25-5.61v-8.86a48.71,48.71,0,0,0-7.68-2.14,41.42,41.42,0,0,0-8-.81q-7.68,0-12.55,3.47t-4.87,8.78a10.56,10.56,0,0,0,3.84,8.34A13.94,13.94,0,0,0,443.93,141Z"/><path class="cls-1" d="M497.07,115.36A42,42,0,0,1,499.88,100,37.42,37.42,0,0,1,508,87.31a39.68,39.68,0,0,1,12.84-8.71,42.48,42.48,0,0,1,17-3.25q12.69,0,21.63,5.46a34.9,34.9,0,0,1,13.36,14.32L553.47,101a17.4,17.4,0,0,0-6.64-6.57,18.58,18.58,0,0,0-9.15-2.29,18.88,18.88,0,0,0-8,1.69,19.67,19.67,0,0,0-6.42,4.72,21.85,21.85,0,0,0-4.28,7.31,27.58,27.58,0,0,0-1.55,9.45,26.4,26.4,0,0,0,1.63,9.45,23.73,23.73,0,0,0,4.35,7.38,19.08,19.08,0,0,0,6.42,4.8,18.45,18.45,0,0,0,7.83,1.7,19,19,0,0,0,9.82-2.66,15,15,0,0,0,6.27-6.5l19.34,5.9A32.49,32.49,0,0,1,560,149.9q-9.16,5.62-22,5.61a42.48,42.48,0,0,1-17-3.25,38.46,38.46,0,0,1-21-21.63A41.34,41.34,0,0,1,497.07,115.36Z"/><path class="cls-1" d="M638.06,154l-22.44-33.51L605,131v23H585.21V46.27H605v65.4l31-34.84H657.1L628.32,109.6,659.17,154Z"/><path class="cls-1" d="M704.64,172.78v-22H661.53V133.22L711,69.74h13.43v63.33h13v17.72h-13v22Zm-23.32-39.71h25.54V99.71Z"/><path class="cls-1" d="M783.62,49.22h18L841.49,154h-21l-9.74-26.13H774.17L764.57,154h-21Zm23.47,64.36L792.62,72.4l-15.06,41.18Z"/><path class="cls-1" d="M897.44,155.52a30.48,30.48,0,0,1-15.94-4.06,28.83,28.83,0,0,1-10.63-11v45H851.08V76.68h17.27V90a31.55,31.55,0,0,1,11.07-10.7,30.77,30.77,0,0,1,15.65-3.91,33.14,33.14,0,0,1,14.47,3.17A35.85,35.85,0,0,1,921,87.09a39.91,39.91,0,0,1,7.53,12.69,43.74,43.74,0,0,1,2.73,15.42,48.77,48.77,0,0,1-2.51,15.8,40.43,40.43,0,0,1-7,12.84,32.72,32.72,0,0,1-10.7,8.57A29.93,29.93,0,0,1,897.44,155.52Zm-6.64-16.83a17.78,17.78,0,0,0,8.2-1.92,19.78,19.78,0,0,0,6.42-5.16,24.24,24.24,0,0,0,4.14-7.53,27,27,0,0,0,1.48-8.86,25,25,0,0,0-1.62-9.08,22.56,22.56,0,0,0-4.5-7.31A20.91,20.91,0,0,0,898.1,94a20.3,20.3,0,0,0-8.49-1.77,18.45,18.45,0,0,0-5.76,1,20.05,20.05,0,0,0-5.46,2.73,23.78,23.78,0,0,0-4.5,4.14,17.16,17.16,0,0,0-3,5.16v18.16a26.29,26.29,0,0,0,8.12,11A18.58,18.58,0,0,0,890.79,138.69Z"/><path class="cls-1" d="M991,155.52a30.48,30.48,0,0,1-15.94-4.06,28.83,28.83,0,0,1-10.63-11v45H944.68V76.68H962V90A31.55,31.55,0,0,1,973,79.27a30.77,30.77,0,0,1,15.65-3.91,33.14,33.14,0,0,1,14.47,3.17,35.85,35.85,0,0,1,11.44,8.57,39.91,39.91,0,0,1,7.53,12.69,43.74,43.74,0,0,1,2.73,15.42,48.77,48.77,0,0,1-2.51,15.8,40.43,40.43,0,0,1-7,12.84,32.72,32.72,0,0,1-10.7,8.57A29.93,29.93,0,0,1,991,155.52Zm-6.64-16.83a17.78,17.78,0,0,0,8.2-1.92A19.78,19.78,0,0,0,999,131.6a24.24,24.24,0,0,0,4.14-7.53,27,27,0,0,0,1.48-8.86,25,25,0,0,0-1.62-9.08,22.56,22.56,0,0,0-4.5-7.31A20.91,20.91,0,0,0,991.7,94a20.3,20.3,0,0,0-8.49-1.77,18.45,18.45,0,0,0-5.76,1A20.05,20.05,0,0,0,972,95.87a23.78,23.78,0,0,0-4.5,4.14,17.16,17.16,0,0,0-3,5.16v18.16a26.29,26.29,0,0,0,8.12,11A18.58,18.58,0,0,0,984.39,138.69Z"/><path class="cls-1" d="M206,133.25c-23.68-12.48-66.47,4.75-66.9,4.92l-1.64.67-1.65-.67c-.23-.1-23.26-9.45-45.14-9.45-8.74,0-16.06,1.52-21.76,4.53-10.35,5.45-16.85,13.25-19.33,23.18-2.06,8.23-2.42,22.58,7.54,44.27a150.4,150.4,0,0,0,8.12,15.22l7.83-29.66,26.67-1.49,5.58-20.47L137.45,150l32.13,14.35,5.57,20.47,26.67,1.49,7.83,29.65a150.28,150.28,0,0,0,8.17-15.32c5.47-11.95,11.22-29.31,7.5-44.18C222.83,146.5,216.33,138.71,206,133.25Z"/><path class="cls-1" d="M85.55,105l-1.59.29-.56.12C70,108.46,67.77,115.82,68.29,121.47c.2,1,.44,2,.71,3.07,10.92-4.29,25.13-4.81,42.29-1.56,1.93-5.54,5.66-8.94,9.11-8.17s5.48,5.55,4.85,11.51c5.58,1.6,9.88,3.15,12.2,4,2.33-.89,6.65-2.44,12.25-4-.62-6,1.34-10.72,4.85-11.5s7.18,2.63,9.11,8.16c16.75-3.17,30.7-2.74,41.52,1.29.21-.79.39-1.58.55-2.35,1.49-12.46-11-16.23-18.57-17.36l-.28-.05-.48-.09-6.37-1-3.21-.45c-2.19-.27-4.38-.51-6.41-.73l-2.3-.2c-1.35-.12-2.75-.25-4.12-.35l-1.14-.07-2.11-.14-1-.07c-.74-.06-1.5-.12-2.24-.15l-2.34-.12c-1.36-.07-2.77-.15-4.15-.19l-6.5-.18-6.49,0h-1l-6.51,0-6.48.18c-1.37,0-2.78.12-4.14.19l-2.33.12c-.75,0-1.51.09-2.25.15l-1,.07-2.1.14-1.14.07c-1.37.1-2.77.22-4.12.35l-2.33.21c-2,.22-4.19.46-6.4.73l-4.79.67-4.78.75-.69.12v0l-1.38.22Z"/><path class="cls-1" d="M172.3,192.46l-3.66-.2-5.1-18.71c-4.54,4-14,10.7-26.25,10.7-11.95,0-21-6.17-26-10.64l-5.08,18.65-3.7.21c-2.67.26-9.08,1.23-10,4.58-1.26,4.66,8.17,12.27,13.93,16.41a61,61,0,0,0,31,8.47c9.09,0,23.28-2.65,39.3-15.26,4.37-4.16,6.27-7.55,5.48-9.83S177.86,193,172.3,192.46Z"/><path class="cls-1" d="M154.89,172.31c-3.27-4.25-10-6.95-17.45-6.95s-14.24,2.72-17.49,7a29.23,29.23,0,0,0,17.36,6.15A29.91,29.91,0,0,0,154.89,172.31Z"/><path class="cls-1" d="M275.41,121.51h0v-1c0-1.1,0-2.18-.07-3.17l-.12-3c0-.06,0-.12,0-.18l-.21-3c-.36-4.57-.83-8.6-1.45-12.3-.75-4.56-1.57-8.54-2.5-12.14-1-4-2.22-8-3.56-11.89s-2.88-7.68-4.62-11.53a143.66,143.66,0,0,0-12.13-21.62,148.28,148.28,0,0,0-15.56-19.2c-2.89-3-5.91-5.91-9-8.59-1.62-1.41-3.24-2.76-4.83-4-.9-.71-1.74-1.35-2.55-1.94l-1.36-1-.09-.06L216,6l-.28-.18-.33-.2a11.35,11.35,0,0,0-1.1-.57,10.94,10.94,0,0,0-14.46,5.52l-5.45,12.18a11.4,11.4,0,0,0-1.9-3.14l-1-1.23-.09-.11c-.29-.34-.57-.64-.94-1-.61-.64-1.16-1.18-1.75-1.73-1-.9-2.09-1.79-3.36-2.74a50.22,50.22,0,0,0-6.9-4.24,65.05,65.05,0,0,0-6.82-3c-2.08-.79-4.33-1.51-6.86-2.2-2.13-.58-4.36-1.09-6.83-1.55-1.1-.21-2.24-.4-3.41-.58l-.12,0L151.15.77C148.82.49,146.58.33,144.5.2h-.12C143.3.14,142.21.1,141,.06L137.82,0h-.24L134.3.06c-1.08,0-2.17.07-3.27.13h-.12c-2.08.14-4.31.3-6.73.58L121,1.2l-.12,0c-1.15.17-2.28.37-3.37.57-2.48.46-4.71,1-6.82,1.55-2.55.69-4.8,1.41-6.83,2.19a65.17,65.17,0,0,0-6.91,3,50.07,50.07,0,0,0-6.87,4.23c-1.24.93-2.34,1.82-3.4,2.78-.53.49-1.08,1-1.75,1.73-.29.31-.57.62-.89,1l-.12.14L83,19.54a11.35,11.35,0,0,0-2,3.22L75.6,10.54A10.94,10.94,0,0,0,60,5.66l-.26.17L58.11,6.91,58,7,56.64,8c-.84.62-1.68,1.26-2.56,2-1.6,1.26-3.23,2.61-4.83,4-3.07,2.68-6.09,5.57-9,8.58A148.47,148.47,0,0,0,24.69,41.72,143.64,143.64,0,0,0,12.57,63.34c-1.74,3.85-3.29,7.73-4.62,11.54S5.42,82.72,4.4,86.73c-.94,3.65-1.76,7.63-2.51,12.16-.62,3.72-1.1,7.75-1.46,12.39l-.2,3c0,.06,0,.12,0,.18L.1,117.26C0,118.34,0,119.42,0,120.54v1c0,.7,0,1.41,0,2.18l0,1.47c0,1.43,0,3.06.14,4.61l0,1c0,.7.06,1.39.11,2.13l.22,2.84c.07,1.09.18,2.16.3,3.22l.31,2.94,0,.17.4,3c.13,1,.27,2.05.44,3l.12.75c.26,1.63.56,3.48.92,5.23l.56,2.9,0,.16.62,2.84c.76,3.49,1.71,7.22,3,11.75.36,1.26.75,2.54,1.14,3.79L9,177.39l.05.17,1.84,5.52a11.1,11.1,0,1,0,21.06-7l-1.77-5.31-.58-1.89c-.33-1.08-.68-2.19-1-3.27-1.15-4.08-2-7.4-2.67-10.45l-.58-2.63-.53-2.74c-.28-1.39-.53-2.9-.77-4.39l-.15-.92c-.14-.78-.24-1.6-.35-2.4l-.37-2.73-.29-2.77c-.08-.79-.17-1.61-.23-2.49l-.21-2.75c0-.53-.06-1.06-.08-1.59l-.05-1.12c-.07-1.18-.09-2.47-.11-3.73l0-1.49c0-.53,0-1.06,0-1.6v-1c0-.88,0-1.67.06-2.55l.11-2.66.18-2.62c.31-3.93.71-7.33,1.23-10.43.64-3.89,1.33-7.24,2.11-10.27.87-3.41,1.88-6.79,3-10s2.42-6.46,3.89-9.71A121.26,121.26,0,0,1,43,54.22,126,126,0,0,1,56.28,37.89c2-2,4-4,6-5.89l2.81,4.93C44.53,57.39,31.2,87.75,30.49,116.21l-.14.19c-.23.33-.44.62-.74,1.09l-.08.12a9.2,9.2,0,0,0-1.3,6.56c.07.42.13.74.22,1.17s.15.68.23,1c.17.69.36,1.38.58,2.06a29.48,29.48,0,0,0,1.62,4.1q.41.85.88,1.65a33.59,33.59,0,0,0,.52,6.08,15.07,15.07,0,0,0,4.32,8.54c-.49,1.41-.92,2.85-1.29,4.3-3.77,15.09-.95,33.06,8.4,53.41a158.48,158.48,0,0,0,14.63,25.38l5.2,7.06a6.39,6.39,0,0,0,11.31-2.16l6.47-24.52q1.8,1.73,3.68,3.37c15.44,13.42,33.57,20.52,52.45,20.52,17.34,0,35-7,50.95-20.38q2.5-2.09,4.91-4.33L200,236.77a6.39,6.39,0,0,0,11.31,2.16l5.21-7.07a158.82,158.82,0,0,0,14.62-25.38c9.35-20.35,12.17-38.32,8.4-53.41-.35-1.4-.76-2.79-1.23-4.15a15,15,0,0,0,4.48-8.69,33.46,33.46,0,0,0,.52-6.06q.47-.79.88-1.65a29.52,29.52,0,0,0,1.64-4.14c.21-.67.4-1.35.57-2,.08-.34.16-.69.25-1.09s.14-.69.2-1.08a9.26,9.26,0,0,0-1.3-6.6l-.07-.11c-.29-.46-.5-.75-.73-1.08l-.07-.1-.24-.33c-.77-28.19-14-58.32-34.36-78.72l3-5.26c2.06,1.86,4.09,3.84,6.06,5.89a126,126,0,0,1,13.22,16.32,121.31,121.31,0,0,1,10.25,18.26c1.47,3.25,2.77,6.52,3.89,9.7s2.14,6.64,3,10.08c.78,3,1.46,6.35,2.11,10.26.51,3.08.91,6.48,1.22,10.34l.18,2.66.11,2.78c0,.79,0,1.58.05,2.45v1.12c0,.51,0,1,0,1.46l0,1.57c0,1.25,0,2.54-.12,3.78l0,1.06c0,.53,0,1.07-.08,1.56l-.22,2.88c-.05.79-.14,1.61-.23,2.48l-.28,2.66-.38,2.83c-.1.77-.2,1.56-.35,2.42l-.14.84c-.24,1.46-.48,3-.78,4.46l-.51,2.64-.59,2.67c-.67,3-1.51,6.36-2.66,10.43-.31,1.1-.66,2.21-1,3.29-.19.63-.39,1.26-.57,1.87l-1.78,5.34a11.1,11.1,0,0,0,21.06,7l1.85-5.55.06-.18.58-1.9c.38-1.23.77-2.51,1.14-3.8,1.27-4.51,2.22-8.24,3-11.73l.63-2.88,0-.16.54-2.8c.37-1.81.65-3.58.93-5.28l.11-.68c.18-1,.32-2.11.46-3.12l.4-3,0-.18.31-2.9c.11-1,.23-2.13.29-3.14l.22-3c0-.7.08-1.39.11-2.09l0-.91c.1-1.61.12-3.23.14-4.65l0-1.57C275.43,122.9,275.42,122.21,275.41,121.51Zm-6.4,3.55c0,1.43,0,2.91-.13,4.38,0,.33,0,.67,0,1,0,.64-.06,1.29-.1,1.93l-.22,2.93c-.06,1-.17,2-.27,2.95l-.31,2.91-.4,3c-.12.94-.25,1.92-.42,2.88l-.12.76c-.27,1.65-.54,3.36-.88,5l-.55,2.86-.63,2.88c-.74,3.36-1.66,7-2.9,11.36-.35,1.23-.73,2.46-1.1,3.66l-.59,1.94-1.85,5.55a4.72,4.72,0,1,1-8.95-3l1.81-5.43c.18-.62.38-1.26.58-1.91.35-1.12.7-2.28,1-3.42,1.19-4.2,2.06-7.64,2.76-10.81l.6-2.74.52-2.72c.32-1.56.57-3.15.82-4.69l.13-.8c.15-.87.27-1.77.38-2.63l.38-2.88.29-2.75c.1-.93.2-1.84.25-2.74l.21-2.8c0-.58.07-1.17.09-1.76,0-.33,0-.67,0-1,.08-1.34.1-2.71.12-4,0-.51,0-1,0-1.52s0-1.16,0-1.75c0-.34,0-.68,0-1,0-1,0-1.86-.06-2.74l-.11-2.8-.19-2.75c-.32-4.1-.74-7.69-1.29-11-.67-4.08-1.4-7.61-2.23-10.8-.91-3.59-2-7.15-3.17-10.57s-2.55-6.81-4.1-10.23a127.73,127.73,0,0,0-10.79-19.23,132.44,132.44,0,0,0-13.9-17.15c-2.57-2.68-5.25-5.25-8-7.62-1.41-1.23-2.83-2.41-4.22-3.5l-.22-.17-9.28,16.26c21.84,19.74,35.93,50.94,36,79.83.26.3.54.63.8,1l.41.54.24.33c.18.25.33.47.55.81l.07.1a2.88,2.88,0,0,1,.39,2.09c-.05.32-.1.58-.16.87s-.12.57-.19.84c-.14.55-.29,1.11-.46,1.65a23.23,23.23,0,0,1-1.28,3.24,16.37,16.37,0,0,1-1.56,2.6,31.21,31.21,0,0,1-.38,6.72c-.9,4.71-3.17,6-4.94,6.33-.08,1-.18,2-.32,3a42.29,42.29,0,0,1,2.09,6.25c3.41,13.65.72,30.2-8,49.19a151.27,151.27,0,0,1-14,24.26l-5.2,7.06-9.57-36.26a112.93,112.93,0,0,1-12.29,12c-14.83,12.36-31,18.9-46.86,18.9-17.32,0-34-6.55-48.26-19a93.88,93.88,0,0,1-11.07-11.44L68.7,235.14l-5.2-7.06a150.91,150.91,0,0,1-14-24.26c-8.72-19-11.42-35.55-8-49.19a42,42,0,0,1,2.33-6.81c-.1-.81-.18-1.63-.24-2.44h0c-1.78-.26-4.09-1.58-5-6.33a31.24,31.24,0,0,1-.38-6.73,16.71,16.71,0,0,1-1.56-2.59,23.28,23.28,0,0,1-1.28-3.23c-.17-.54-.33-1.1-.46-1.65q-.1-.41-.19-.84c-.06-.3-.11-.56-.17-.91a2.86,2.86,0,0,1,.4-2.06l.06-.1c.22-.34.38-.56.55-.81l.24-.32c.14-.19.29-.39.44-.57s.41-.51.63-.76c0-29.16,14.27-60.57,36.34-80.33l-9.1-16-.22.17c-1.39,1.1-2.81,2.27-4.22,3.5-2.72,2.37-5.4,4.94-8,7.62a132.47,132.47,0,0,0-13.9,17.15A127.76,127.76,0,0,0,27,69.85c-1.55,3.43-2.92,6.87-4.1,10.23s-2.25,7-3.16,10.56c-.83,3.19-1.55,6.73-2.23,10.8-.55,3.27-1,6.85-1.29,11L16,115.18l-.11,2.75c0,.89-.06,1.77-.06,2.75,0,.33,0,.67,0,1,0,.59,0,1.18,0,1.76s0,1,0,1.51c0,1.32,0,2.68.12,4,0,.34,0,.68,0,1,0,.59.05,1.18.09,1.77l.21,2.78c.06.91.16,1.83.25,2.71l.3,2.82.38,2.82c.11.87.23,1.78.38,2.65l.14.84c.25,1.53.5,3.11.81,4.65l.53,2.76.6,2.71c.69,3.17,1.57,6.61,2.76,10.81.32,1.14.68,2.3,1,3.42l.59,1.94,1.8,5.4a4.72,4.72,0,1,1-8.95,3l-1.84-5.52-.6-2c-.37-1.2-.75-2.43-1.1-3.66-1.24-4.4-2.16-8-2.9-11.37l-.63-2.85-.56-2.9c-.34-1.67-.61-3.38-.88-5L8.31,147c-.16-.94-.29-1.91-.41-2.85l-.4-3-.31-2.94c-.1-1-.21-2-.27-3l-.22-2.91c0-.65-.07-1.29-.1-1.93,0-.34,0-.68,0-1-.09-1.46-.11-2.95-.13-4.38,0-.5,0-1,0-1.51,0-.66,0-1.31,0-2,0-.34,0-.67,0-1,0-1,0-2,.07-3l.12-2.92.2-3c.34-4.39.8-8.24,1.39-11.77.72-4.35,1.5-8.15,2.39-11.61,1-3.85,2.13-7.67,3.4-11.35s2.75-7.33,4.41-11A137.19,137.19,0,0,1,30,45.32,141.94,141.94,0,0,1,44.87,26.94c2.76-2.88,5.64-5.64,8.57-8.19C55,17.41,56.51,16.13,58,14.94c.83-.65,1.61-1.25,2.4-1.83l1.24-.89,1.62-1.08a4.56,4.56,0,0,1,6.25,1.56,5,5,0,0,1,.25.48l9.08,20.29a78.23,78.23,0,0,1,7.88-5.24,5.19,5.19,0,0,1,1.11-4.5l.25-.28.79-1c.25-.29.49-.54.72-.8.53-.55,1-1,1.41-1.4.86-.78,1.8-1.54,2.88-2.35a44,44,0,0,1,6-3.68,58.87,58.87,0,0,1,6.19-2.72c1.88-.71,3.93-1.37,6.28-2,1.94-.53,4-1,6.32-1.43,1-.19,2.09-.37,3.16-.54L125,7.11c2.18-.26,4.32-.41,6.32-.54,1.07-.05,2.11-.09,3.16-.12l3.21-.06,3.23.06c1.06,0,2.1.07,3.15.12,2,.13,4.16.29,6.32.54l3.14.42c1.09.17,2.16.35,3.18.54C159,8.5,161.1,9,163,9.5c2.34.64,4.4,1.29,6.28,2a58.81,58.81,0,0,1,6.18,2.71,44,44,0,0,1,6,3.69c1.09.81,2,1.58,2.88,2.34.43.4.89.85,1.41,1.4.26.27.49.52.72.79l1.05,1.27a5.2,5.2,0,0,1,1.06,4.75,79.36,79.36,0,0,1,7.81,5.28l9.2-20.56a4.56,4.56,0,0,1,6-2.3,4.68,4.68,0,0,1,.46.24l.26.16,1.38.94,1.25.9c.77.56,1.55,1.16,2.39,1.82,1.51,1.19,3.06,2.47,4.59,3.81,2.92,2.55,5.81,5.31,8.57,8.19a142,142,0,0,1,14.89,18.37A137.2,137.2,0,0,1,257,66c1.66,3.68,3.14,7.38,4.41,11s2.42,7.51,3.4,11.36c.89,3.45,1.67,7.25,2.39,11.61.59,3.53,1,7.38,1.39,11.76l.2,2.94.12,3c0,1,.06,2,.07,3h0c0,.34,0,.68,0,1,0,.64,0,1.29,0,1.93S269,124.55,269,125.06Z"/><path class="cls-1" d="M197.85,45.85,187.47,64a2.1,2.1,0,0,1-3.74-1.9l9.21-20.58a73.37,73.37,0,0,0-7-5L175.57,67.4a2.09,2.09,0,0,1-2.44,1.43,2.21,2.21,0,0,1-1.61-2.6l6.85-37c-.51-.4-1.08-.81-1.71-1.23a38.26,38.26,0,0,0-4.88-2.65c-1.55-.7-3.29-1.37-5.3-2-1.84-.62-3.75-1.1-5.54-1.53s-3.58-.79-5.67-1.11l-1.92-.28-1-.14-2.89-.33c-1.92-.19-3.84-.3-5.81-.39l-2.93-.1-2.91,0h-.2l-2.89,0-2.93.1c-1.95.1-3.87.2-5.81.39l-3.86.47-1.92.28c-2.09.33-3.94.69-5.67,1.11s-3.71.91-5.54,1.53c-2,.68-3.76,1.35-5.32,2.05A38.2,38.2,0,0,0,98.78,28c-.63.42-1.2.83-1.71,1.23l6.85,37a2.21,2.21,0,0,1-1.61,2.6,2.09,2.09,0,0,1-2.44-1.43L89.42,36.31a72.2,72.2,0,0,0-7.07,5L91.7,62.14A2.1,2.1,0,0,1,88,64L77.4,45.54A99,99,0,0,0,60.13,67.18,108.39,108.39,0,0,0,48.37,94.82c-.44,1.92-1.25,6.7,1,8.71,1.5,1.36,4.39,1.38,8.37.06A119.53,119.53,0,0,1,70.34,98.5c1.77-.64,3.59-1.18,5.36-1.7l1.16-.35,3.87-1,1.09-.28,1.65-.39c3.85-1,8.08-1.81,13.3-2.66,2.39-.37,4.72-.7,6.68-1l2.35-.28c1.43-.17,2.91-.35,4.37-.5l.64-.06c2-.19,4-.38,6.08-.51l2.35-.14c1.43-.09,2.9-.18,4.35-.25l6.69-.25,7.3-.12h.51l6.68.11,6.71.25c1.46.06,2.94.16,4.36.25l2.35.14c2,.13,4.1.32,6.09.51l.63.06c1.47.15,2.94.33,4.37.5l2.32.28c2,.28,4.32.61,6.7,1,5.23.86,9.46,1.71,13.33,2.67l1.63.39,1.09.28,3.85,1,1.2.35c1.76.52,3.59,1.06,5.37,1.7a119.13,119.13,0,0,1,12.75,5.15l.37.19c3.75,1.17,6.37,1.09,7.81-.22,2-1.87,1.49-6,1-8.37a108.08,108.08,0,0,0-12-28.23A99.49,99.49,0,0,0,197.85,45.85Zm4.8,41.51c.33.19.6.36.81.49l.56.35,7.34,4.67-9.72-3.11c-.79-.24-2.14-.65-4-1.19l-2.91-.8-4.76-1.2-2.6-.62-1.5-.34L183,85l-1.66-.34c-1-.21-2-.42-3.11-.62l-1.78-.32c-1.09-.2-2.21-.41-3.35-.6l-1.88-.3c-1.17-.19-2.35-.38-3.56-.55l-2-.27c-1.22-.17-2.45-.34-3.7-.49l-2.08-.23c-1.26-.14-2.54-.28-3.83-.41l-2.14-.18c-1.3-.11-2.61-.22-3.92-.31l-2.17-.11-4-.2L137.54,80h-.16l-6.07.11-4,.2-2.19.11c-1.3.09-2.61.2-3.92.31l-2.15.18c-1.27.12-2.55.26-3.82.41l-2.09.23c-1.24.15-2.48.32-3.7.49l-2,.27c-1.19.17-2.37.36-3.53.55l-1.91.31c-1.13.19-2.24.39-3.33.6l-1.8.33c-1.06.2-2.1.41-3.11.62L92.14,85l-2.86.63L87.77,86l-3.93.94L77.5,88.58c-1.9.54-3.24.94-4,1.19l-9.73,3.11,7.93-5c.21-.13.48-.3.81-.49L73.1,87c.81-.46,1.92-1.09,3.26-1.76.89-.45,1.88-.92,2.82-1.37s1.91-.87,3-1.32l.41-.18c1.14-.49,2.34-1,3.61-1.47l.27-.11c1.48-.57,3-1.12,4.36-1.6.55-.19,1.11-.37,1.67-.56l.68-.22.84-.27c.53-.17,1.07-.35,1.62-.51s1.24-.37,1.89-.55l.66-.19.9-.26c.58-.17,1.16-.33,1.75-.48.85-.23,1.73-.44,2.62-.66l.11,0,1-.24c.61-.15,1.23-.3,1.85-.43,1.09-.24,2-.44,2.89-.61l1-.2c.64-.13,1.29-.26,1.95-.37,4.21-.75,8.38-1.33,12.39-1.7l3.2-.25c1.09-.09,2.17-.17,3.25-.21l6.63-.17,2.81.08,3.48.09c1.11,0,2.24.13,3.31.21l3.24.25c4,.37,8.21.95,12.43,1.7.64.11,1.29.24,1.94.37l1,.2c.87.17,1.79.36,2.9.61.61.13,1.23.28,1.85.43l1,.23h.06c.91.22,1.81.44,2.69.67.57.14,1.16.31,1.73.48l.9.26.68.19c.64.18,1.27.36,1.89.55s1.07.33,1.6.51l.83.27.7.23c.56.18,1.12.36,1.66.55l1.47.53.76.28.5.18c.56.2,1.1.4,1.63.61,1.37.54,2.66,1.06,3.88,1.58l.35.16c1.07.47,2.08.91,3,1.35s1.91.91,2.82,1.38c1.34.67,2.45,1.3,3.26,1.76Z"/></g></g></g></svg>